<mxfile host="Electron" modified="2023-05-29T11:11:37.601Z" agent="Mozilla/5.0 (Macintosh; Intel Mac OS X 10_15_7) AppleWebKit/537.36 (KHTML, like Gecko) draw.io/21.2.8 Chrome/112.0.5615.165 Electron/24.2.0 Safari/537.36" etag="3nRryKp6UkTHc6GJSnTW" version="21.2.8" type="device">
  <diagram name="第 1 页" id="Rwrv5zYoTLxHaGuez0I6">
    <mxGraphModel dx="1114" dy="771" grid="1" gridSize="10" guides="1" tooltips="1" connect="1" arrows="1" fold="1" page="1" pageScale="1" pageWidth="827" pageHeight="1169" math="0" shadow="0">
      <root>
        <mxCell id="0" />
        <mxCell id="1" parent="0" />
        <mxCell id="-Wc4JUVpt_9Hr5LyUXs_-5" style="edgeStyle=orthogonalEdgeStyle;rounded=0;orthogonalLoop=1;jettySize=auto;html=1;exitX=1;exitY=0.5;exitDx=0;exitDy=0;entryX=0;entryY=0.5;entryDx=0;entryDy=0;" edge="1" parent="1" source="-Wc4JUVpt_9Hr5LyUXs_-1" target="-Wc4JUVpt_9Hr5LyUXs_-4">
          <mxGeometry relative="1" as="geometry" />
        </mxCell>
        <mxCell id="-Wc4JUVpt_9Hr5LyUXs_-1" value="Endpoints" style="shape=step;perimeter=stepPerimeter;whiteSpace=wrap;html=1;fixedSize=1;" vertex="1" parent="1">
          <mxGeometry x="120" y="580" width="140" height="60" as="geometry" />
        </mxCell>
        <mxCell id="-Wc4JUVpt_9Hr5LyUXs_-6" style="edgeStyle=orthogonalEdgeStyle;rounded=0;orthogonalLoop=1;jettySize=auto;html=1;exitX=1;exitY=0.5;exitDx=0;exitDy=0;entryX=0;entryY=0.5;entryDx=0;entryDy=0;" edge="1" parent="1" source="-Wc4JUVpt_9Hr5LyUXs_-3" target="-Wc4JUVpt_9Hr5LyUXs_-4">
          <mxGeometry relative="1" as="geometry" />
        </mxCell>
        <mxCell id="-Wc4JUVpt_9Hr5LyUXs_-3" value="Reload channel" style="shape=step;perimeter=stepPerimeter;whiteSpace=wrap;html=1;fixedSize=1;" vertex="1" parent="1">
          <mxGeometry x="120" y="680" width="140" height="60" as="geometry" />
        </mxCell>
        <mxCell id="-Wc4JUVpt_9Hr5LyUXs_-4" value="Reconcile" style="ellipse;whiteSpace=wrap;html=1;aspect=fixed;" vertex="1" parent="1">
          <mxGeometry x="414" y="620" width="90" height="90" as="geometry" />
        </mxCell>
        <mxCell id="-Wc4JUVpt_9Hr5LyUXs_-7" value="&amp;nbsp; Request {&lt;br&gt;&lt;div style=&quot;&quot;&gt;&amp;nbsp; &amp;nbsp; Name: EP.Name,&lt;/div&gt;&lt;div style=&quot;&quot;&gt;&amp;nbsp; &amp;nbsp; Namespace: EP.Namespace,&lt;/div&gt;&lt;div style=&quot;&quot;&gt;&lt;span style=&quot;background-color: initial;&quot;&gt;&amp;nbsp; }&lt;/span&gt;&lt;/div&gt;" style="shape=note;whiteSpace=wrap;html=1;backgroundOutline=1;darkOpacity=0.05;align=left;size=17;fillColor=#fff2cc;strokeColor=#d6b656;" vertex="1" parent="1">
          <mxGeometry x="190" y="520" width="180" height="70" as="geometry" />
        </mxCell>
        <mxCell id="-Wc4JUVpt_9Hr5LyUXs_-8" value="&amp;nbsp; Request {&lt;br&gt;&lt;div style=&quot;&quot;&gt;&amp;nbsp; &amp;nbsp; Name: &quot;reload&quot;,&lt;/div&gt;&lt;div style=&quot;&quot;&gt;&amp;nbsp; &amp;nbsp; Namespace: &quot;metallbreload&quot;,&lt;/div&gt;&lt;div style=&quot;&quot;&gt;&lt;span style=&quot;background-color: initial;&quot;&gt;&amp;nbsp; }&lt;/span&gt;&lt;/div&gt;" style="shape=note;whiteSpace=wrap;html=1;backgroundOutline=1;darkOpacity=0.05;align=left;size=17;fillColor=#fff2cc;strokeColor=#d6b656;" vertex="1" parent="1">
          <mxGeometry x="190" y="730" width="180" height="70" as="geometry" />
        </mxCell>
      </root>
    </mxGraphModel>
  </diagram>
</mxfile>
